# xmcd CD database file
#
# Track frame offsets:
#	150
#	15580
#	34315
#	48995
#	67830
#	86420
#	101395
#	119792
#	137707
#	151152
#
# Disc length: 2227 seconds
#
# Revision: 0
# Processed by: cddbd v1.4PL0 Copyright (c) Steve Scherf et al.
# Submitted via: CDex 1.40Release
#
DISCID=7908b10a
DTITLE=Juice Newton - Angel
DYEAR=1982
DGENRE=Country
TTITLE0=Queen of Hearts
TTITLE1=Heart Of The Night
TTITLE2=Love's Been A Little Bit Hard On Me
TTITLE3=Angel Of The Morning
TTITLE4=The Sweetest Thing (I've Ever Known)
TTITLE5=Until Tonight
TTITLE6=Break It To Me Gently
TTITLE7=Let's Keep It That Way
TTITLE8=Sunshine
TTITLE9=Ride 'Em Cowboy
EXTD=YEAR: 1982 ID3G: 2
EXTT0=
EXTT1=
EXTT2=
EXTT3=
EXTT4=
EXTT5=
EXTT6=
EXTT7=
EXTT8=
EXTT9=
PLAYORDER=
